<svg width="375.5" height="76.702" viewBox="0 0 375.5 76.702" xmlns="http://www.w3.org/2000/svg"><g id="svgGroup" stroke-linecap="round" fill-rule="nonzero" font-size="9pt" stroke="#00000000" stroke-width="0.25mm" fill="#0022fc" style="stroke:#00000000;stroke-width:0.25mm;fill:#0022fc"><path d="M 243 21 L 238 21 A 17.568 17.568 0 0 0 236.792 16.881 A 12.647 12.647 0 0 0 233.2 12.1 A 13.313 13.313 0 0 0 227.715 9.473 Q 225.747 9.015 223.449 9.001 A 23.838 23.838 0 0 0 223.3 9 A 18.297 18.297 0 0 0 216.82 10.117 A 16.574 16.574 0 0 0 211.7 13.2 A 23.079 23.079 0 0 0 207.052 18.89 Q 205.558 21.419 204.447 24.532 A 39.71 39.71 0 0 0 204.3 24.95 Q 201.7 32.5 201.5 42.6 Q 204.3 36.4 209.95 32.95 Q 215.6 29.5 222.5 29.5 A 26.02 26.02 0 0 1 229.09 30.304 A 21.615 21.615 0 0 1 234.2 32.35 Q 239.3 35.2 242.25 40.35 A 22.132 22.132 0 0 1 244.905 48.209 A 28.788 28.788 0 0 1 245.2 52.4 A 30.589 30.589 0 0 1 244.552 58.837 A 23.604 23.604 0 0 1 242.25 65.15 Q 239.3 70.6 233.9 73.65 A 23.314 23.314 0 0 1 225.995 76.34 A 30.754 30.754 0 0 1 221.2 76.7 Q 214.1 76.7 208.5 72.7 Q 202.9 68.7 199.7 61.25 A 37.161 37.161 0 0 1 197.351 53.317 Q 196.66 49.577 196.53 45.302 A 66.067 66.067 0 0 1 196.5 43.3 A 65.023 65.023 0 0 1 197.286 32.952 A 48.782 48.782 0 0 1 199.85 23.25 A 37.74 37.74 0 0 1 203.523 15.98 A 28.673 28.673 0 0 1 209.3 9.5 Q 215.4 4.5 223.5 4.5 A 25.285 25.285 0 0 1 227.779 4.848 A 20.508 20.508 0 0 1 230.8 5.6 A 17.812 17.812 0 0 1 235.717 8.108 A 16.646 16.646 0 0 1 236.6 8.8 A 17.453 17.453 0 0 1 240.594 13.666 A 19.874 19.874 0 0 1 240.75 13.95 Q 242.4 17 243 21 Z M 221.4 72.2 A 21.643 21.643 0 0 0 226.574 71.607 A 17.328 17.328 0 0 0 231.2 69.75 Q 235.4 67.3 237.75 62.95 A 19.553 19.553 0 0 0 239.935 55.887 A 24.523 24.523 0 0 0 240.1 53 Q 240.1 47.4 237.85 43.1 Q 235.6 38.8 231.6 36.4 A 16.816 16.816 0 0 0 224.947 34.16 A 21.389 21.389 0 0 0 222.3 34 A 23.41 23.41 0 0 0 216.125 34.776 A 17.742 17.742 0 0 0 208.85 38.7 Q 203.6 43.4 201.9 50.5 Q 203.248 59.934 208.164 65.8 A 23.236 23.236 0 0 0 208.55 66.25 Q 213.8 72.2 221.4 72.2 Z M 180.7 38.3 A 23.013 23.013 0 0 0 180.419 36.558 A 18.713 18.713 0 0 0 176.75 28.5 Q 173.5 24.4 168.6 22.15 A 23.964 23.964 0 0 0 165.773 21.062 A 26.145 26.145 0 0 0 157.9 19.9 Q 149.8 19.9 143.65 23.45 Q 137.5 27 134.05 33.4 A 27.748 27.748 0 0 0 131.41 40.558 A 35.462 35.462 0 0 0 130.6 48.3 A 37.639 37.639 0 0 0 131.002 53.896 A 28.789 28.789 0 0 0 134 63.2 Q 137.4 69.6 143.55 73.15 A 25.528 25.528 0 0 0 150.325 75.84 A 32.011 32.011 0 0 0 157.9 76.7 Q 163.1 76.7 167.9 74.45 Q 172.7 72.2 176.25 68.1 A 20.86 20.86 0 0 0 178.681 64.638 A 23.664 23.664 0 0 0 181.1 58.2 L 176.4 58.2 A 19.652 19.652 0 0 1 176.385 58.269 A 16.808 16.808 0 0 1 172.55 65.8 Q 169.7 69 165.85 70.75 Q 162 72.5 157.9 72.5 Q 147.4 72.5 141.35 65.95 A 21.015 21.015 0 0 1 140.876 65.418 Q 135.3 58.956 135.3 48.3 A 33.783 33.783 0 0 1 135.79 42.412 A 24.575 24.575 0 0 1 138.05 35.5 Q 140.8 30.1 145.9 27.1 A 20.961 20.961 0 0 1 151.827 24.759 A 26.801 26.801 0 0 1 157.9 24.1 A 24.596 24.596 0 0 1 160.493 24.234 A 19.134 19.134 0 0 1 170.1 27.9 A 14.813 14.813 0 0 1 174.197 32.482 A 16.045 16.045 0 0 1 176.1 38.3 L 180.7 38.3 Z M 112.8 21.1 L 93.3 47.1 L 114.6 75.5 L 108.9 75.5 L 98.8 61.9 L 90.6 50.5 L 82.3 62 L 72.2 75.5 L 66.7 75.5 L 87.8 47.2 L 67.9 21.1 L 73.5 21.1 L 82.1 32.5 L 90.4 43.8 L 98.7 32.4 L 107.3 21.1 L 112.8 21.1 Z M 350.8 75.5 L 346.2 75.5 L 346.2 14.2 A 24.951 24.951 0 0 1 346.464 10.482 A 18.184 18.184 0 0 1 347.4 6.8 Q 348.6 3.6 351.6 1.8 A 11.06 11.06 0 0 1 354.356 0.651 Q 355.681 0.285 357.27 0.125 A 26.246 26.246 0 0 1 359.9 0 L 375.5 0 L 375.5 3.8 L 359.8 3.8 A 13.766 13.766 0 0 0 357.412 3.998 A 10.295 10.295 0 0 0 355.05 4.7 A 6.368 6.368 0 0 0 351.97 7.57 A 7.941 7.941 0 0 0 351.9 7.7 A 8.126 8.126 0 0 0 351.252 9.429 Q 350.8 11.166 350.8 13.6 L 350.8 75.5 Z M 374.5 75.5 L 374.5 71.7 L 327.1 71.7 L 327.1 75.5 L 374.5 75.5 Z M 18.724 75.818 A 20.252 20.252 0 0 1 11.6 72.25 A 24.772 24.772 0 0 1 5.426 65.051 A 33.448 33.448 0 0 1 2.95 59.7 A 46.426 46.426 0 0 1 0.75 50.95 Q 0 46.143 0 40.6 Q 0 29.5 2.95 21.4 A 32.211 32.211 0 0 1 6.058 15.021 A 23.998 23.998 0 0 1 11.6 8.9 A 20.923 20.923 0 0 1 21.494 4.793 A 27.911 27.911 0 0 1 25.6 4.5 A 25.9 25.9 0 0 1 32.328 5.335 A 20.094 20.094 0 0 1 39.55 8.9 Q 45.2 13.3 48.15 21.35 Q 50.782 28.531 51.066 38.22 A 81.256 81.256 0 0 1 51.1 40.6 Q 51.1 51.7 48.15 59.8 Q 45.2 67.9 39.55 72.3 Q 33.9 76.7 25.6 76.7 A 25.639 25.639 0 0 1 18.724 75.818 Z M 25.6 72.2 A 18.782 18.782 0 0 0 32.576 70.96 Q 37.106 69.164 40.13 64.769 A 21.963 21.963 0 0 0 40.85 63.65 A 32.141 32.141 0 0 0 44.279 55.377 Q 45.342 51.431 45.748 46.727 A 71.202 71.202 0 0 0 46 40.6 Q 46 25.9 40.85 17.45 Q 35.7 9 25.6 9 A 19.092 19.092 0 0 0 18.715 10.188 Q 13.55 12.169 10.3 17.45 A 31.105 31.105 0 0 0 6.886 25.519 Q 5.826 29.359 5.395 33.956 A 71.324 71.324 0 0 0 5.1 40.6 Q 5.1 50.878 7.713 58.167 A 30.001 30.001 0 0 0 10.3 63.65 A 18.323 18.323 0 0 0 15.222 69.106 Q 18.92 71.765 23.927 72.139 A 22.474 22.474 0 0 0 25.6 72.2 Z M 278.724 75.818 A 20.252 20.252 0 0 1 271.6 72.25 A 24.772 24.772 0 0 1 265.426 65.051 A 33.448 33.448 0 0 1 262.95 59.7 A 46.426 46.426 0 0 1 260.75 50.95 Q 260 46.143 260 40.6 Q 260 29.5 262.95 21.4 A 32.211 32.211 0 0 1 266.058 15.021 A 23.998 23.998 0 0 1 271.6 8.9 A 20.923 20.923 0 0 1 281.494 4.793 A 27.911 27.911 0 0 1 285.6 4.5 A 25.9 25.9 0 0 1 292.328 5.335 A 20.094 20.094 0 0 1 299.55 8.9 Q 305.2 13.3 308.15 21.35 Q 310.782 28.531 311.066 38.22 A 81.256 81.256 0 0 1 311.1 40.6 Q 311.1 51.7 308.15 59.8 Q 305.2 67.9 299.55 72.3 Q 293.9 76.7 285.6 76.7 A 25.639 25.639 0 0 1 278.724 75.818 Z M 285.6 72.2 A 18.782 18.782 0 0 0 292.576 70.96 Q 297.106 69.164 300.13 64.769 A 21.963 21.963 0 0 0 300.85 63.65 A 32.141 32.141 0 0 0 304.279 55.377 Q 305.342 51.431 305.748 46.727 A 71.202 71.202 0 0 0 306 40.6 Q 306 25.9 300.85 17.45 Q 295.7 9 285.6 9 A 19.092 19.092 0 0 0 278.715 10.188 Q 273.55 12.169 270.3 17.45 A 31.105 31.105 0 0 0 266.886 25.519 Q 265.826 29.359 265.395 33.956 A 71.324 71.324 0 0 0 265.1 40.6 Q 265.1 50.878 267.713 58.167 A 30.001 30.001 0 0 0 270.3 63.65 A 18.323 18.323 0 0 0 275.222 69.106 Q 278.92 71.765 283.927 72.139 A 22.474 22.474 0 0 0 285.6 72.2 Z M 371.8 24.9 L 331.2 24.9 L 331.2 21.1 L 371.8 21.1 L 371.8 24.9 Z" vector-effect="non-scaling-stroke"/></g></svg>
